:SAMPLES-PER-SECOND 30
:FULLY-SPECIFIED
:DEGREES
355
root  45.006 36.3276 -1.25417 -15.137 -84.4894 19.6314
RightUpLeg  -39.9597 -11.0832 -7.01788
RightLeg  43.8729 -4.5332 -4.96482
RightFoot  -1.85977 -0.108689 1.14964
RightToes  2.32829e-010 0 -3.6325e-017
Spine  46.8811 -3.59897 7.4245
Spine1  -10.5117 -0.56565 -5.16525
HEad  -54.6753 -3.21718 -0.819905
LeftShoulder1  10.1016 -23.0757 -31.846
LeftArm  -39.3598 -59.1007 -11.936
LeftForeArm  11.1529 -39.9916 -8.68758
LeftHand  -0.244104 0.0205437 5.32207
RightShoulder  3.53446 12.2656 15.6687
RightArm  -60.519 48.8284 1.38684
RightForeArm  -44.15 42.8415 12.5589
RightHand  -0.0775289 -4.48218 -7.52984
LeftUpLeg  -40.9677 10.8085 -2.32845
LeftLeg  44.402 -0.0496138 0.355157
LeftFoot  -3.10301 -0.0299688 0.671315
LeftToes  1.42787e-010 7.94111e-011 2.6399e-011
356
root  45.2203 36.3938 -0.933364 -19.147 -85.4853 23.0378
RightUpLeg  -39.5648 -10.2297 -7.69728
RightLeg  43.0397 -3.82867 -4.12744
RightFoot  -0.0479176 -0.227158 2.27079
RightToes  2.32829e-010 0 -3.6325e-017
Spine  46.4068 -3.57743 8.16389
Spine1  -10.8801 -0.0735663 -6.81484
HEad  -53.521 -3.80811 -0.441607
LeftShoulder1  9.99284 -24.2126 -29.8475
LeftArm  -44.0444 -62.4994 -9.68213
LeftForeArm  3.94521 -36.4196 -8.0467
LeftHand  -0.244104 0.0205437 5.32207
RightShoulder  3.18775 12.1635 13.4035
RightArm  -67.1129 50.2908 -2.20757
RightForeArm  -41.6662 39.9335 11.4041
RightHand  -0.0305339 -5.00388 -2.51013
LeftUpLeg  -40.6852 11.7411 -2.9371
LeftLeg  44.3255 0.462413 0.891689
LeftFoot  -1.94963 -0.110641 1.48691
LeftToes  1.42787e-010 7.94111e-011 2.6399e-011
357
root  45.4989 36.4696 -0.528172 -29.5931 -86.7755 33.1724
RightUpLeg  -39.5198 -9.04624 -8.5178
RightLeg  41.7859 -3.24323 -3.39203
RightFoot  1.91204 -0.468054 4.13923
RightToes  2.32829e-010 0 -3.6325e-017
Spine  45.7143 -3.65526 9.05959
Spine1  -11.2285 0.419508 -8.94981
HEad  -51.631 -4.1641 -0.017917
LeftShoulder1  10.1734 -25.5289 -28.7822
LeftArm  -49.5277 -65.5499 -5.68416
LeftForeArm  -2.36645 -31.3573 -7.02161
LeftHand  -0.244104 0.0205437 5.32207
RightShoulder  2.93709 12.2512 11.5227
RightArm  -71.9218 52.1075 -5.38197
RightForeArm  -39.5391 34.4962 9.56615
RightHand  -0.0233057 -5.03897 2.72879
LeftUpLeg  -40.3174 12.6918 -3.73517
LeftLeg  43.5258 1.21475 1.63612
LeftFoot  -1.37672 -0.229959 2.74165
LeftToes  1.42787e-010 7.94111e-011 2.6399e-011
358
root  45.8473 36.5986 -0.0875627 -65.0585 -87.8361 68.8839
RightUpLeg  -40.0765 -8.24009 -9.15093
RightLeg  39.9252 -2.7991 -2.78742
RightFoot  4.65458 -0.599536 4.5288
RightToes  2.32829e-010 0 -3.6325e-017
Spine  45.2528 -3.69286 9.49822
Spine1  -11.7205 0.825114 -11.1323
HEad  -50.2228 -4.1416 0.123347
LeftShoulder1  10.2775 -26.524 -27.9244
LeftArm  -56.4519 -67.9691 0.0459552
LeftForeArm  -8.61323 -25.0886 -5.77886
LeftHand  -0.244104 0.0205437 5.32207
RightShoulder  2.91229 12.7118 10.7583
RightArm  -75.4676 54.7048 -8.41279
RightForeArm  -40.3973 27.7321 7.71399
RightHand  -0.0724753 -5.94502 6.83167
LeftUpLeg  -39.6896 14.6256 -5.2328
LeftLeg  41.0997 1.79751 2.07176
LeftFoot  -1.71787 -0.391467 4.78549
LeftToes  1.42787e-010 7.94111e-011 2.6399e-011
359
root  46.2849 36.7456 0.360665 -119.638 -87.2757 124.185
RightUpLeg  -40.7795 -8.69324 -9.32606
RightLeg  36.9032 -0.726675 -0.884101
RightFoot  7.54418 -0.670617 4.30723
RightToes  2.32829e-010 0 -3.6325e-017
Spine  45.2271 -3.64293 9.24428
Spine1  -12.043 1.06901 -12.4458
HEad  -50.0494 -3.38473 -0.325853
LeftShoulder1  10.0086 -26.9703 -26.4859
LeftArm  -64.8308 -69.1542 6.2261
LeftForeArm  -16.2746 -19.4762 -4.38139
LeftHand  -0.244104 0.0205437 5.32207
RightShoulder  3.03057 13.3288 10.8061
RightArm  -77.8457 57.9538 -10.8913
RightForeArm  -43.7253 22.1131 6.25249
RightHand  -0.185 -6.98236 9.92831
LeftUpLeg  -39.423 17.6483 -7.40144
LeftLeg  37.7711 1.94739 2.00072
LeftFoot  -2.12152 -0.561516 7.10185
LeftToes  1.42787e-010 7.94111e-011 2.6399e-011
360
root  46.7922 36.8124 0.797822 -141.119 -85.5573 146.622
RightUpLeg  -41.0607 -10.5579 -9.10806
RightLeg  32.8258 3.97978 2.49488
RightFoot  8.34199 -1.1809 7.17792
RightToes  2.32829e-010 0 -3.6325e-017
Spine  45.4279 -3.59528 8.67541
Spine1  -12.3089 1.16471 -12.906
HEad  -50.5911 -1.92789 -1.07023
LeftShoulder1  9.66737 -27.021 -25.2723
LeftArm  -71.0965 -68.5793 9.43093
LeftForeArm  -23.3347 -17.6421 -3.33079
LeftHand  -0.244104 0.0205437 5.32207
RightShoulder  3.16349 13.843 11.0585
RightArm  -77.4858 60.7246 -10.0959
RightForeArm  -47.3378 20.7006 5.70728
RightHand  -0.243818 -7.08902 12.8738
LeftUpLeg  -40.3173 20.6377 -9.65769
LeftLeg  35.3233 1.65451 1.63073
LeftFoot  -1.83707 -0.71751 8.74347
LeftToes  1.42787e-010 7.94111e-011 2.6399e-011
361
root  47.3132 36.7493 1.19124 -149.27 -83.8865 155.758
RightUpLeg  -41.4215 -13.0898 -8.58542
RightLeg  30.0312 8.35696 5.01569
RightFoot  6.32348 -1.94778 12.8171
RightToes  2.32829e-010 0 -3.6325e-017
Spine  45.613 -3.11148 7.9743
Spine1  -12.6112 1.54317 -12.2431
HEad  -50.7347 -0.647817 -2.10009
LeftShoulder1  10.0894 -26.9243 -26.807
LeftArm  -73.1155 -66.5055 7.99959
LeftForeArm  -24.4261 -21.2437 -4.78683
LeftHand  -0.244104 0.0205437 5.32207
RightShoulder  3.27485 14.2178 11.3326
RightArm  -73.154 61.4282 -3.18308
RightForeArm  -48.8551 25.3225 7.3459
RightHand  -0.31149 -7.36114 14.6467
LeftUpLeg  -42.2993 22.7932 -11.5166
LeftLeg  34.5323 1.3353 1.36027
LeftFoot  -1.14397 -0.840692 9.47861
LeftToes  1.42787e-010 7.94111e-011 2.6399e-011
362
root  47.8587 36.6465 1.53287 -155.563 -82.1697 162.816
RightUpLeg  -42.6254 -14.8297 -7.85816
RightLeg  31.5928 7.72684 4.82829
RightFoot  3.40508 -2.03418 15.742
RightToes  2.32829e-010 0 -3.6325e-017
Spine  45.7038 -1.56297 7.02532
Spine1  -12.0927 2.5755 -9.10137
HEad  -50.0658 -0.221263 -4.04205
LeftShoulder1  11.4347 -26.6009 -31.7373
LeftArm  -67.4804 -63.8283 3.80536
LeftForeArm  -24.383 -29.0981 -7.59062
LeftHand  -0.244104 0.0205437 5.32207
RightShoulder  3.32956 14.3786 11.4647
RightArm  -62.6668 59.4214 7.61282
RightForeArm  -52.9373 35.0857 10.1148
RightHand  -0.478465 -9.277 12.1948
LeftUpLeg  -44.3146 24.3365 -12.7765
LeftLeg  34.1849 1.43361 1.41889
LeftFoot  -0.364416 -0.955421 9.93807
LeftToes  1.42787e-010 7.94111e-011 2.6399e-011
363
root  48.4728 36.5357 1.81591 -161.153 -80.6142 168.602
RightUpLeg  -43.957 -14.964 -7.48505
RightLeg  38.1736 2.26792 1.55996
RightFoot  0.765449 -1.4751 13.859
RightToes  2.32829e-010 0 -3.6325e-017
Spine  46.2484 -1.13486 7.11845
Spine1  -11.0473 2.83234 -7.7303
HEad  -48.7178 0.580061 -4.72991
LeftShoulder1  11.8375 -25.9102 -34.0063
LeftArm  -58.1884 -59.8586 -3.08935
LeftForeArm  -26.1373 -37.5698 -9.99496
LeftHand  -0.244104 0.0205437 5.32207
RightShoulder  4.18694 15.26 15.5451
RightArm  -52.3237 55.6926 14.5629
RightForeArm  -64.5115 45.7541 14.1151
RightHand  -0.145378 -13.6131 2.32652
LeftUpLeg  -45.6587 25.377 -13.3
LeftLeg  33.7032 1.98981 1.79515
LeftFoot  0.414934 -1.09128 10.5417
LeftToes  1.42787e-010 7.94111e-011 2.6399e-011
364
root  49.1495 36.3495 2.00525 -164.719 -79.6191 171.954
RightUpLeg  -44.4565 -14.4169 -7.67202
RightLeg  47.4996 -2.66398 -3.42377
RightFoot  -2.4089 -0.84829 10.5804
RightToes  2.32829e-010 0 -3.6325e-017
Spine  47.4821 -1.18965 7.27526
Spine1  -10.1726 2.67631 -6.58523
HEad  -47.4539 1.54632 -5.36316
LeftShoulder1  12.2306 -25.2233 -36.3048
LeftArm  -50.7657 -55.1398 -9.62386
LeftForeArm  -28.3823 -43.554 -12.2311
LeftHand  -0.244104 0.0205437 5.32207
RightShoulder  5.40432 16.0589 21.2206
RightArm  -45.0828 51.5488 16.9223
RightForeArm  -90.1638 54.8875 18.5663
RightHand  1.50786 -16.859 -17.6028
LeftUpLeg  -46.7903 25.8305 -13.402
LeftLeg  33.6536 2.55568 2.1938
LeftFoot  1.21308 -1.22219 11.0083
LeftToes  1.42787e-010 7.94111e-011 2.6399e-011
365
root  49.8655 36.1089 2.13206 -167.085 -78.7671 174.458
RightUpLeg  -44.9997 -14.2333 -7.47445
RightLeg  57.4612 -4.56438 -8.12079
RightFoot  -6.02676 -0.37368 7.12084
RightToes  2.32829e-010 0 -3.6325e-017
Spine  49.0895 -2.51934 8.3416
Spine1  -9.63729 1.97499 -8.41297
HEad  -47.8652 2.66961 -4.80593
LeftShoulder1  12.1234 -24.6538 -36.7929
LeftArm  -45.8518 -49.8568 -15.1372
LeftForeArm  -29.4804 -46.998 -13.7664
LeftHand  -0.244104 0.0205437 5.32207
RightShoulder  7.02195 16.9066 28.3788
RightArm  -42.202 48.2394 16.3648
RightForeArm  -115.434 62.0744 22.6237
RightHand  1.33804 -9.56173 -33.1675
LeftUpLeg  -48.6099 26.4185 -13.7311
LeftLeg  33.8625 2.70471 2.31305
LeftFoot  2.13182 -1.3174 11.0089
LeftToes  1.42787e-010 7.94111e-011 2.6399e-011
